<svg xmlns="http://www.w3.org/2000/svg" width="16.94" height="15.097" viewBox="0 0 16.94 15.097">
  <path id="heart" d="M15.93,2.778a4.5,4.5,0,0,0-6.366,0l-.545.552-.541-.551,0,0a4.5,4.5,0,0,0-6.364,0l-.243.243a4.5,4.5,0,0,0,0,6.364L8.279,15.8,9,16.554l.017-.017.019.019.678-.716,6.456-6.455a4.505,4.505,0,0,0,0-6.364Zm-.553,5.811L9.02,14.947,2.663,8.589a3.375,3.375,0,0,1,0-4.773l.243-.243a3.375,3.375,0,0,1,4.771,0L9.016,4.935l1.346-1.362a3.375,3.375,0,0,1,4.773,0l.243.243a3.379,3.379,0,0,1,0,4.773Z" transform="translate(-0.549 -1.459)"/>
</svg>
